<mxfile host="app.diagrams.net" modified="2023-06-21T07:04:59.122Z" agent="Mozilla/5.0 (Windows NT 10.0; Win64; x64) AppleWebKit/537.36 (KHTML, like Gecko) Chrome/114.0.0.0 Safari/537.36" etag="w5CeYOQiImheTlDR3kAN" version="21.5.0" type="device">
  <diagram id="lWKHl0DGJKNdS5AiAbQL" name="Side-1">
    <mxGraphModel dx="2117" dy="1710" grid="1" gridSize="10" guides="1" tooltips="1" connect="1" arrows="1" fold="1" page="1" pageScale="1" pageWidth="827" pageHeight="1169" math="0" shadow="0">
      <root>
        <mxCell id="0" />
        <mxCell id="1" parent="0" />
        <mxCell id="0fPadxyHPUMfXpmrg0gB-1" value="CV" style="rounded=0;whiteSpace=wrap;html=1;" parent="1" vertex="1">
          <mxGeometry x="-110" y="10" width="120" height="60" as="geometry" />
        </mxCell>
        <mxCell id="0fPadxyHPUMfXpmrg0gB-4" value="Website" style="rounded=0;whiteSpace=wrap;html=1;" parent="1" vertex="1">
          <mxGeometry x="260" y="-110" width="120" height="60" as="geometry" />
        </mxCell>
        <mxCell id="0fPadxyHPUMfXpmrg0gB-12" value="Project" style="rounded=0;whiteSpace=wrap;html=1;" parent="1" vertex="1">
          <mxGeometry x="240" y="140" width="120" height="60" as="geometry" />
        </mxCell>
        <mxCell id="0fPadxyHPUMfXpmrg0gB-15" value="Contact Formular" style="html=1;whiteSpace=wrap;" parent="1" vertex="1">
          <mxGeometry x="435" y="130" width="110" height="60" as="geometry" />
        </mxCell>
        <mxCell id="0fPadxyHPUMfXpmrg0gB-20" value="CV" style="rounded=0;whiteSpace=wrap;html=1;" parent="1" vertex="1">
          <mxGeometry x="110" y="10" width="120" height="60" as="geometry" />
        </mxCell>
        <mxCell id="0fPadxyHPUMfXpmrg0gB-21" value="Projects" style="rounded=0;whiteSpace=wrap;html=1;" parent="1" vertex="1">
          <mxGeometry x="260" y="10" width="120" height="60" as="geometry" />
        </mxCell>
        <mxCell id="0fPadxyHPUMfXpmrg0gB-22" value="Contact" style="rounded=0;whiteSpace=wrap;html=1;" parent="1" vertex="1">
          <mxGeometry x="430" y="10" width="120" height="60" as="geometry" />
        </mxCell>
        <mxCell id="0fPadxyHPUMfXpmrg0gB-31" value="n" style="edgeLabel;resizable=0;html=1;align=left;verticalAlign=bottom;" parent="1" connectable="0" vertex="1">
          <mxGeometry x="350" y="130.0000000000001" as="geometry">
            <mxPoint x="-20" y="11" as="offset" />
          </mxGeometry>
        </mxCell>
        <mxCell id="0fPadxyHPUMfXpmrg0gB-35" value="" style="endArrow=diamondThin;endFill=0;endSize=24;html=1;rounded=0;exitX=0.5;exitY=0;exitDx=0;exitDy=0;entryX=0;entryY=0.5;entryDx=0;entryDy=0;" parent="1" source="0fPadxyHPUMfXpmrg0gB-20" target="0fPadxyHPUMfXpmrg0gB-4" edge="1">
          <mxGeometry width="160" relative="1" as="geometry">
            <mxPoint x="160" y="-10" as="sourcePoint" />
            <mxPoint x="490" y="-10" as="targetPoint" />
            <Array as="points">
              <mxPoint x="170" y="-80" />
            </Array>
          </mxGeometry>
        </mxCell>
        <mxCell id="0fPadxyHPUMfXpmrg0gB-36" value="" style="endArrow=diamondThin;endFill=0;endSize=24;html=1;rounded=0;entryX=0.5;entryY=1;entryDx=0;entryDy=0;" parent="1" target="0fPadxyHPUMfXpmrg0gB-21" edge="1">
          <mxGeometry width="160" relative="1" as="geometry">
            <mxPoint x="320" y="140" as="sourcePoint" />
            <mxPoint x="480" y="140" as="targetPoint" />
          </mxGeometry>
        </mxCell>
        <mxCell id="0fPadxyHPUMfXpmrg0gB-37" value="1" style="text;align=center;fontStyle=1;verticalAlign=middle;spacingLeft=3;spacingRight=3;strokeColor=none;rotatable=0;points=[[0,0.5],[1,0.5]];portConstraint=eastwest;html=1;" parent="1" vertex="1">
          <mxGeometry x="300" y="70" width="80" height="26" as="geometry" />
        </mxCell>
        <mxCell id="0fPadxyHPUMfXpmrg0gB-38" value="" style="endArrow=diamondThin;endFill=0;endSize=24;html=1;rounded=0;entryX=0;entryY=0.5;entryDx=0;entryDy=0;exitX=1;exitY=0.5;exitDx=0;exitDy=0;" parent="1" target="0fPadxyHPUMfXpmrg0gB-20" edge="1" source="0fPadxyHPUMfXpmrg0gB-1">
          <mxGeometry width="160" relative="1" as="geometry">
            <mxPoint x="70" y="140" as="sourcePoint" />
            <mxPoint x="230" y="140" as="targetPoint" />
            <Array as="points">
              <mxPoint x="70" y="40" />
            </Array>
          </mxGeometry>
        </mxCell>
        <mxCell id="0fPadxyHPUMfXpmrg0gB-39" value="" style="endArrow=diamondThin;endFill=0;endSize=24;html=1;rounded=0;entryX=0.5;entryY=1;entryDx=0;entryDy=0;" parent="1" target="0fPadxyHPUMfXpmrg0gB-4" edge="1">
          <mxGeometry width="160" relative="1" as="geometry">
            <mxPoint x="320" y="10" as="sourcePoint" />
            <mxPoint x="480" y="10" as="targetPoint" />
          </mxGeometry>
        </mxCell>
        <mxCell id="0fPadxyHPUMfXpmrg0gB-40" value="" style="endArrow=diamondThin;endFill=0;endSize=24;html=1;rounded=0;entryX=1;entryY=0.5;entryDx=0;entryDy=0;" parent="1" target="0fPadxyHPUMfXpmrg0gB-4" edge="1">
          <mxGeometry width="160" relative="1" as="geometry">
            <mxPoint x="480" y="10" as="sourcePoint" />
            <mxPoint x="640" y="10" as="targetPoint" />
            <Array as="points">
              <mxPoint x="480" y="-80" />
            </Array>
          </mxGeometry>
        </mxCell>
        <mxCell id="0fPadxyHPUMfXpmrg0gB-41" value="" style="endArrow=diamondThin;endFill=0;endSize=24;html=1;rounded=0;entryX=0.5;entryY=1;entryDx=0;entryDy=0;exitX=0.5;exitY=0;exitDx=0;exitDy=0;" parent="1" source="0fPadxyHPUMfXpmrg0gB-15" target="0fPadxyHPUMfXpmrg0gB-22" edge="1">
          <mxGeometry width="160" relative="1" as="geometry">
            <mxPoint x="500" y="130" as="sourcePoint" />
            <mxPoint x="660" y="130" as="targetPoint" />
          </mxGeometry>
        </mxCell>
        <mxCell id="0fPadxyHPUMfXpmrg0gB-42" value="1" style="text;align=center;fontStyle=1;verticalAlign=middle;spacingLeft=3;spacingRight=3;strokeColor=none;rotatable=0;points=[[0,0.5],[1,0.5]];portConstraint=eastwest;html=1;" parent="1" vertex="1">
          <mxGeometry x="470" y="70" width="80" height="26" as="geometry" />
        </mxCell>
        <mxCell id="0fPadxyHPUMfXpmrg0gB-43" value="1" style="text;align=center;fontStyle=1;verticalAlign=middle;spacingLeft=3;spacingRight=3;strokeColor=none;rotatable=0;points=[[0,0.5],[1,0.5]];portConstraint=eastwest;html=1;" parent="1" vertex="1">
          <mxGeometry x="465" y="104" width="80" height="26" as="geometry" />
        </mxCell>
        <mxCell id="0fPadxyHPUMfXpmrg0gB-44" value="1" style="text;align=center;fontStyle=1;verticalAlign=middle;spacingLeft=3;spacingRight=3;strokeColor=none;rotatable=0;points=[[0,0.5],[1,0.5]];portConstraint=eastwest;html=1;" parent="1" vertex="1">
          <mxGeometry x="50" y="54" width="80" height="26" as="geometry" />
        </mxCell>
        <mxCell id="0fPadxyHPUMfXpmrg0gB-45" value="1" style="text;align=center;fontStyle=1;verticalAlign=middle;spacingLeft=3;spacingRight=3;strokeColor=none;rotatable=0;points=[[0,0.5],[1,0.5]];portConstraint=eastwest;html=1;" parent="1" vertex="1">
          <mxGeometry x="-10" y="54" width="80" height="26" as="geometry" />
        </mxCell>
        <mxCell id="KfwK6zV8al8WnbC2sbmB-2" value="1" style="text;align=center;fontStyle=1;verticalAlign=middle;spacingLeft=3;spacingRight=3;strokeColor=none;rotatable=0;points=[[0,0.5],[1,0.5]];portConstraint=eastwest;html=1;" vertex="1" parent="1">
          <mxGeometry x="300" y="-20" width="80" height="30" as="geometry" />
        </mxCell>
        <mxCell id="KfwK6zV8al8WnbC2sbmB-3" value="1" style="text;align=center;fontStyle=1;verticalAlign=middle;spacingLeft=3;spacingRight=3;strokeColor=none;rotatable=0;points=[[0,0.5],[1,0.5]];portConstraint=eastwest;html=1;" vertex="1" parent="1">
          <mxGeometry x="200" y="-76" width="80" height="26" as="geometry" />
        </mxCell>
        <mxCell id="KfwK6zV8al8WnbC2sbmB-4" value="1" style="text;align=center;fontStyle=1;verticalAlign=middle;spacingLeft=3;spacingRight=3;strokeColor=none;rotatable=0;points=[[0,0.5],[1,0.5]];portConstraint=eastwest;html=1;" vertex="1" parent="1">
          <mxGeometry x="140" y="-16" width="80" height="26" as="geometry" />
        </mxCell>
        <mxCell id="KfwK6zV8al8WnbC2sbmB-5" value="1" style="text;align=center;fontStyle=1;verticalAlign=middle;spacingLeft=3;spacingRight=3;strokeColor=none;rotatable=0;points=[[0,0.5],[1,0.5]];portConstraint=eastwest;html=1;" vertex="1" parent="1">
          <mxGeometry x="355" y="-70" width="80" height="26" as="geometry" />
        </mxCell>
        <mxCell id="KfwK6zV8al8WnbC2sbmB-6" value="1" style="text;align=center;fontStyle=1;verticalAlign=middle;spacingLeft=3;spacingRight=3;strokeColor=none;rotatable=0;points=[[0,0.5],[1,0.5]];portConstraint=eastwest;html=1;" vertex="1" parent="1">
          <mxGeometry x="430" y="-10" width="80" height="26" as="geometry" />
        </mxCell>
        <mxCell id="KfwK6zV8al8WnbC2sbmB-7" value="1" style="text;align=center;fontStyle=1;verticalAlign=middle;spacingLeft=3;spacingRight=3;strokeColor=none;rotatable=0;points=[[0,0.5],[1,0.5]];portConstraint=eastwest;html=1;" vertex="1" parent="1">
          <mxGeometry x="310" y="-50" width="80" height="26" as="geometry" />
        </mxCell>
        <mxCell id="KfwK6zV8al8WnbC2sbmB-9" value="Technology" style="rounded=0;whiteSpace=wrap;html=1;" vertex="1" parent="1">
          <mxGeometry x="70" y="170" width="120" height="60" as="geometry" />
        </mxCell>
        <mxCell id="KfwK6zV8al8WnbC2sbmB-10" value="" style="endArrow=diamondThin;endFill=0;endSize=24;html=1;rounded=0;entryX=1;entryY=0.5;entryDx=0;entryDy=0;exitX=0.5;exitY=0;exitDx=0;exitDy=0;" edge="1" parent="1" source="KfwK6zV8al8WnbC2sbmB-9" target="0fPadxyHPUMfXpmrg0gB-44">
          <mxGeometry width="160" relative="1" as="geometry">
            <mxPoint x="130" y="140" as="sourcePoint" />
            <mxPoint x="290" y="140" as="targetPoint" />
          </mxGeometry>
        </mxCell>
        <mxCell id="KfwK6zV8al8WnbC2sbmB-12" value="1" style="text;align=center;fontStyle=1;verticalAlign=middle;spacingLeft=3;spacingRight=3;strokeColor=none;rotatable=0;points=[[0,0.5],[1,0.5]];portConstraint=eastwest;html=1;" vertex="1" parent="1">
          <mxGeometry x="110" y="70" width="80" height="26" as="geometry" />
        </mxCell>
        <mxCell id="KfwK6zV8al8WnbC2sbmB-13" value="n" style="edgeLabel;resizable=0;html=1;align=left;verticalAlign=bottom;" connectable="0" vertex="1" parent="1">
          <mxGeometry x="170" y="150.0000000000001" as="geometry">
            <mxPoint x="-20" y="11" as="offset" />
          </mxGeometry>
        </mxCell>
      </root>
    </mxGraphModel>
  </diagram>
</mxfile>
